<mxfile host="app.diagrams.net" agent="Mozilla/5.0 (Windows NT 10.0; Win64; x64) AppleWebKit/537.36 (KHTML, like Gecko) Chrome/138.0.0.0 Safari/537.36 Edg/138.0.0.0" version="28.0.7">
  <diagram name="Page-1" id="e7e014a7-5840-1c2e-5031-d8a46d1fe8dd">
    <mxGraphModel dx="1880" dy="1877" grid="1" gridSize="10" guides="1" tooltips="1" connect="1" arrows="1" fold="1" page="1" pageScale="1" pageWidth="1169" pageHeight="826" background="none" math="0" shadow="0">
      <root>
        <mxCell id="0" />
        <mxCell id="1" parent="0" />
        <mxCell id="2" value="Người dùng" style="swimlane;whiteSpace=wrap" parent="1" vertex="1">
          <mxGeometry x="180" y="128" width="264.5" height="1632" as="geometry" />
        </mxCell>
        <mxCell id="4vjb239dcJdlYheojxHy-130" style="edgeStyle=orthogonalEdgeStyle;rounded=0;orthogonalLoop=1;jettySize=auto;html=1;" edge="1" parent="2" source="5" target="7">
          <mxGeometry relative="1" as="geometry" />
        </mxCell>
        <mxCell id="5" value="" style="ellipse;shape=startState;fillColor=#000000;strokeColor=#ff0000;" parent="2" vertex="1">
          <mxGeometry x="100" y="32" width="30" height="30" as="geometry" />
        </mxCell>
        <mxCell id="7" value="Khởi tạo yêu cầu &#xa;tạo VM (Horizon/CLI)" style="direction=west;" parent="2" vertex="1">
          <mxGeometry x="50" y="92" width="130" height="50" as="geometry" />
        </mxCell>
        <mxCell id="4vjb239dcJdlYheojxHy-128" value="Gửi yêu cầu tạo máy ảo kèm token" style="whiteSpace=wrap;html=1;" vertex="1" parent="2">
          <mxGeometry x="70" y="227" width="120" height="60" as="geometry" />
        </mxCell>
        <mxCell id="3" value="Keystone" style="swimlane;whiteSpace=wrap" parent="1" vertex="1">
          <mxGeometry x="444.5" y="128" width="280" height="1632" as="geometry" />
        </mxCell>
        <mxCell id="4vjb239dcJdlYheojxHy-124" style="edgeStyle=orthogonalEdgeStyle;rounded=0;orthogonalLoop=1;jettySize=auto;html=1;" edge="1" parent="3" source="8" target="4vjb239dcJdlYheojxHy-117">
          <mxGeometry relative="1" as="geometry" />
        </mxCell>
        <mxCell id="8" value="Nhận yêu cầu&#xa;xác thực" style="" parent="3" vertex="1">
          <mxGeometry x="85" y="92" width="110" height="50" as="geometry" />
        </mxCell>
        <mxCell id="4vjb239dcJdlYheojxHy-125" style="edgeStyle=orthogonalEdgeStyle;rounded=0;orthogonalLoop=1;jettySize=auto;html=1;entryX=0.5;entryY=0;entryDx=0;entryDy=0;" edge="1" parent="3" source="4vjb239dcJdlYheojxHy-117" target="4vjb239dcJdlYheojxHy-119">
          <mxGeometry relative="1" as="geometry" />
        </mxCell>
        <mxCell id="4vjb239dcJdlYheojxHy-117" value="Kiểm tra thông tin&#xa;xác thực" style="" vertex="1" parent="3">
          <mxGeometry x="85" y="162" width="110" height="50" as="geometry" />
        </mxCell>
        <mxCell id="4vjb239dcJdlYheojxHy-119" value="Cấp token truy cập" style="" vertex="1" parent="3">
          <mxGeometry x="85" y="232" width="110" height="50" as="geometry" />
        </mxCell>
        <mxCell id="4" value="Nova api" style="swimlane;whiteSpace=wrap;startSize=23;" parent="1" vertex="1">
          <mxGeometry x="724.5" y="128" width="280" height="1632" as="geometry" />
        </mxCell>
        <mxCell id="4vjb239dcJdlYheojxHy-136" value="" style="edgeStyle=orthogonalEdgeStyle;rounded=0;orthogonalLoop=1;jettySize=auto;html=1;" edge="1" parent="4" source="4vjb239dcJdlYheojxHy-133" target="4vjb239dcJdlYheojxHy-135">
          <mxGeometry relative="1" as="geometry" />
        </mxCell>
        <mxCell id="4vjb239dcJdlYheojxHy-133" value="Nhận yêu cầu tạo máy ảo" style="whiteSpace=wrap;html=1;" vertex="1" parent="4">
          <mxGeometry x="80" y="265" width="120" height="60" as="geometry" />
        </mxCell>
        <mxCell id="4vjb239dcJdlYheojxHy-138" value="" style="edgeStyle=orthogonalEdgeStyle;rounded=0;orthogonalLoop=1;jettySize=auto;html=1;" edge="1" parent="4" source="4vjb239dcJdlYheojxHy-135" target="4vjb239dcJdlYheojxHy-137">
          <mxGeometry relative="1" as="geometry" />
        </mxCell>
        <mxCell id="4vjb239dcJdlYheojxHy-135" value="Nhận yêu cầu tạo máy ảo" style="whiteSpace=wrap;html=1;" vertex="1" parent="4">
          <mxGeometry x="80" y="352" width="120" height="60" as="geometry" />
        </mxCell>
        <mxCell id="4vjb239dcJdlYheojxHy-140" value="" style="edgeStyle=orthogonalEdgeStyle;rounded=0;orthogonalLoop=1;jettySize=auto;html=1;" edge="1" parent="4" source="4vjb239dcJdlYheojxHy-137" target="4vjb239dcJdlYheojxHy-139">
          <mxGeometry relative="1" as="geometry" />
        </mxCell>
        <mxCell id="4vjb239dcJdlYheojxHy-137" value="Phân tích request (image, flavor, network...)" style="whiteSpace=wrap;html=1;" vertex="1" parent="4">
          <mxGeometry x="80" y="432" width="120" height="60" as="geometry" />
        </mxCell>
        <mxCell id="4vjb239dcJdlYheojxHy-143" value="" style="edgeStyle=orthogonalEdgeStyle;rounded=0;orthogonalLoop=1;jettySize=auto;html=1;" edge="1" parent="4" source="4vjb239dcJdlYheojxHy-139" target="4vjb239dcJdlYheojxHy-142">
          <mxGeometry relative="1" as="geometry" />
        </mxCell>
        <mxCell id="4vjb239dcJdlYheojxHy-139" value="Kiểm tra quota" style="whiteSpace=wrap;html=1;" vertex="1" parent="4">
          <mxGeometry x="80" y="512" width="120" height="60" as="geometry" />
        </mxCell>
        <mxCell id="4vjb239dcJdlYheojxHy-142" value="Ghi log, tạo bản ghi yêu cầu" style="whiteSpace=wrap;html=1;" vertex="1" parent="4">
          <mxGeometry x="80" y="592" width="120" height="60" as="geometry" />
        </mxCell>
        <mxCell id="4vjb239dcJdlYheojxHy-201" value="" style="edgeStyle=orthogonalEdgeStyle;rounded=0;orthogonalLoop=1;jettySize=auto;html=1;" edge="1" parent="4" source="4vjb239dcJdlYheojxHy-198" target="4vjb239dcJdlYheojxHy-200">
          <mxGeometry relative="1" as="geometry" />
        </mxCell>
        <mxCell id="4vjb239dcJdlYheojxHy-198" value="Gửi thông báo thành công tới người dùng" style="whiteSpace=wrap;html=1;rounded=0;" vertex="1" parent="4">
          <mxGeometry x="80" y="1482" width="120" height="60" as="geometry" />
        </mxCell>
        <mxCell id="4vjb239dcJdlYheojxHy-200" value="" style="ellipse;html=1;shape=endState;fillColor=#000000;strokeColor=#ff0000;" vertex="1" parent="4">
          <mxGeometry x="125" y="1582" width="30" height="30" as="geometry" />
        </mxCell>
        <mxCell id="4vjb239dcJdlYheojxHy-41" value="Nova scheduler" style="swimlane;whiteSpace=wrap;startSize=23;" vertex="1" parent="1">
          <mxGeometry x="1004.5" y="128" width="285.5" height="1632" as="geometry" />
        </mxCell>
        <mxCell id="4vjb239dcJdlYheojxHy-46" value="" style="endArrow=open;strokeColor=#FF0000;endFill=1;rounded=0" edge="1" parent="4vjb239dcJdlYheojxHy-41" source="4vjb239dcJdlYheojxHy-44">
          <mxGeometry relative="1" as="geometry">
            <mxPoint x="75" y="220" as="targetPoint" />
          </mxGeometry>
        </mxCell>
        <mxCell id="4vjb239dcJdlYheojxHy-48" value="" style="endArrow=open;strokeColor=#FF0000;endFill=1;rounded=0" edge="1" parent="4vjb239dcJdlYheojxHy-41" target="4vjb239dcJdlYheojxHy-47">
          <mxGeometry relative="1" as="geometry">
            <mxPoint x="75" y="270" as="sourcePoint" />
          </mxGeometry>
        </mxCell>
        <mxCell id="4vjb239dcJdlYheojxHy-57" value="" style="endArrow=none;strokeColor=#FF0000;endFill=0;rounded=0;dashed=1" edge="1" parent="4vjb239dcJdlYheojxHy-41" target="4vjb239dcJdlYheojxHy-56">
          <mxGeometry relative="1" as="geometry">
            <mxPoint x="87.12121212121201" y="375" as="sourcePoint" />
          </mxGeometry>
        </mxCell>
        <mxCell id="4vjb239dcJdlYheojxHy-144" value="Chọn compute node phù hợp" style="whiteSpace=wrap;html=1;" vertex="1" parent="4vjb239dcJdlYheojxHy-41">
          <mxGeometry x="82.75" y="592" width="120" height="60" as="geometry" />
        </mxCell>
        <mxCell id="4vjb239dcJdlYheojxHy-60" value="Nova conductor" style="swimlane;whiteSpace=wrap" vertex="1" parent="1">
          <mxGeometry x="1290" y="128" width="260" height="1632" as="geometry" />
        </mxCell>
        <mxCell id="4vjb239dcJdlYheojxHy-65" value="" style="endArrow=open;strokeColor=#FF0000;endFill=1;rounded=0" edge="1" parent="4vjb239dcJdlYheojxHy-60" source="4vjb239dcJdlYheojxHy-63">
          <mxGeometry relative="1" as="geometry">
            <mxPoint x="115" y="220" as="targetPoint" />
          </mxGeometry>
        </mxCell>
        <mxCell id="4vjb239dcJdlYheojxHy-67" value="" style="endArrow=open;strokeColor=#FF0000;endFill=1;rounded=0" edge="1" parent="4vjb239dcJdlYheojxHy-60" source="4vjb239dcJdlYheojxHy-64">
          <mxGeometry relative="1" as="geometry">
            <mxPoint x="115" y="325" as="targetPoint" />
          </mxGeometry>
        </mxCell>
        <mxCell id="4vjb239dcJdlYheojxHy-68" value="" style="edgeStyle=elbowEdgeStyle;elbow=horizontal;strokeColor=#FF0000;endArrow=open;endFill=1;rounded=0" edge="1" parent="4vjb239dcJdlYheojxHy-60" target="4vjb239dcJdlYheojxHy-63">
          <mxGeometry width="100" height="100" relative="1" as="geometry">
            <mxPoint x="60" y="350" as="sourcePoint" />
            <mxPoint x="260" y="190" as="targetPoint" />
            <Array as="points">
              <mxPoint x="30" y="250" />
            </Array>
          </mxGeometry>
        </mxCell>
        <mxCell id="4vjb239dcJdlYheojxHy-161" value="" style="edgeStyle=orthogonalEdgeStyle;rounded=0;orthogonalLoop=1;jettySize=auto;html=1;" edge="1" parent="4vjb239dcJdlYheojxHy-60" source="4vjb239dcJdlYheojxHy-155" target="4vjb239dcJdlYheojxHy-159">
          <mxGeometry relative="1" as="geometry">
            <Array as="points">
              <mxPoint x="110" y="782" />
              <mxPoint x="110" y="782" />
            </Array>
          </mxGeometry>
        </mxCell>
        <mxCell id="4vjb239dcJdlYheojxHy-155" value="Tạo các bản ghi DB cho instance, block device mapping,..." style="whiteSpace=wrap;html=1;" vertex="1" parent="4vjb239dcJdlYheojxHy-60">
          <mxGeometry x="50" y="592" width="120" height="60" as="geometry" />
        </mxCell>
        <mxCell id="4vjb239dcJdlYheojxHy-159" value="" style="html=1;points=[];perimeter=orthogonalPerimeter;fillColor=strokeColor;direction=south;" vertex="1" parent="4vjb239dcJdlYheojxHy-60">
          <mxGeometry x="80" y="819.5" width="80" height="5" as="geometry" />
        </mxCell>
        <mxCell id="4vjb239dcJdlYheojxHy-196" value="" style="edgeStyle=orthogonalEdgeStyle;rounded=0;orthogonalLoop=1;jettySize=auto;html=1;" edge="1" parent="4vjb239dcJdlYheojxHy-60" source="4vjb239dcJdlYheojxHy-193" target="4vjb239dcJdlYheojxHy-195">
          <mxGeometry relative="1" as="geometry" />
        </mxCell>
        <mxCell id="4vjb239dcJdlYheojxHy-193" value="Xác nhận instance đã tạo xong" style="whiteSpace=wrap;html=1;rounded=0;" vertex="1" parent="4vjb239dcJdlYheojxHy-60">
          <mxGeometry x="70" y="1402" width="120" height="60" as="geometry" />
        </mxCell>
        <mxCell id="4vjb239dcJdlYheojxHy-195" value="Cập nhật trạng thái trong DB" style="whiteSpace=wrap;html=1;rounded=0;" vertex="1" parent="4vjb239dcJdlYheojxHy-60">
          <mxGeometry x="70" y="1482" width="120" height="60" as="geometry" />
        </mxCell>
        <mxCell id="4vjb239dcJdlYheojxHy-69" value="Glance" style="swimlane;whiteSpace=wrap" vertex="1" parent="1">
          <mxGeometry x="1550" y="128" width="294.5" height="1632" as="geometry" />
        </mxCell>
        <mxCell id="4vjb239dcJdlYheojxHy-74" value="" style="endArrow=open;strokeColor=#FF0000;endFill=1;rounded=0" edge="1" parent="4vjb239dcJdlYheojxHy-69" target="4vjb239dcJdlYheojxHy-73">
          <mxGeometry relative="1" as="geometry">
            <mxPoint x="75" y="160" as="sourcePoint" />
          </mxGeometry>
        </mxCell>
        <mxCell id="4vjb239dcJdlYheojxHy-79" value="no" style="edgeStyle=elbowEdgeStyle;elbow=horizontal;align=left;verticalAlign=top;endArrow=open;endSize=8;strokeColor=#FF0000;endFill=1;rounded=0" edge="1" parent="4vjb239dcJdlYheojxHy-69" source="4vjb239dcJdlYheojxHy-77">
          <mxGeometry x="-1" relative="1" as="geometry">
            <mxPoint x="189.5" y="325" as="targetPoint" />
          </mxGeometry>
        </mxCell>
        <mxCell id="4vjb239dcJdlYheojxHy-80" value="" style="endArrow=open;strokeColor=#FF0000;endFill=1;rounded=0" edge="1" parent="4vjb239dcJdlYheojxHy-69" target="4vjb239dcJdlYheojxHy-77">
          <mxGeometry relative="1" as="geometry">
            <mxPoint x="130" y="245" as="sourcePoint" />
          </mxGeometry>
        </mxCell>
        <mxCell id="4vjb239dcJdlYheojxHy-166" value="" style="edgeStyle=orthogonalEdgeStyle;rounded=0;orthogonalLoop=1;jettySize=auto;html=1;entryX=0.5;entryY=0;entryDx=0;entryDy=0;" edge="1" parent="4vjb239dcJdlYheojxHy-69" target="4vjb239dcJdlYheojxHy-167">
          <mxGeometry relative="1" as="geometry">
            <mxPoint x="-160" y="824.4999999999998" as="sourcePoint" />
            <mxPoint x="20" y="872" as="targetPoint" />
            <Array as="points">
              <mxPoint x="-160" y="872" />
              <mxPoint x="435" y="872" />
            </Array>
          </mxGeometry>
        </mxCell>
        <mxCell id="4vjb239dcJdlYheojxHy-176" value="" style="edgeStyle=orthogonalEdgeStyle;rounded=0;orthogonalLoop=1;jettySize=auto;html=1;" edge="1" parent="4vjb239dcJdlYheojxHy-69" source="4vjb239dcJdlYheojxHy-173" target="4vjb239dcJdlYheojxHy-175">
          <mxGeometry relative="1" as="geometry">
            <Array as="points">
              <mxPoint x="147" y="1082" />
              <mxPoint x="147" y="1082" />
            </Array>
          </mxGeometry>
        </mxCell>
        <mxCell id="4vjb239dcJdlYheojxHy-173" value="Cung cấp image cho compute node" style="rounded=0;whiteSpace=wrap;html=1;" vertex="1" parent="4vjb239dcJdlYheojxHy-69">
          <mxGeometry x="87.25" y="992" width="120" height="60" as="geometry" />
        </mxCell>
        <mxCell id="4vjb239dcJdlYheojxHy-175" value="" style="html=1;points=[];perimeter=orthogonalPerimeter;fillColor=strokeColor;direction=south;" vertex="1" parent="4vjb239dcJdlYheojxHy-69">
          <mxGeometry x="120" y="1092" width="80" height="5" as="geometry" />
        </mxCell>
        <mxCell id="4vjb239dcJdlYheojxHy-88" value="Neutron" style="swimlane;whiteSpace=wrap" vertex="1" parent="1">
          <mxGeometry x="1844.5" y="128" width="280" height="1632" as="geometry" />
        </mxCell>
        <mxCell id="4vjb239dcJdlYheojxHy-93" value="" style="endArrow=open;strokeColor=#FF0000;endFill=1;rounded=0" edge="1" parent="4vjb239dcJdlYheojxHy-88" target="4vjb239dcJdlYheojxHy-92">
          <mxGeometry relative="1" as="geometry">
            <mxPoint x="145" y="455.0000000000002" as="sourcePoint" />
          </mxGeometry>
        </mxCell>
        <mxCell id="4vjb239dcJdlYheojxHy-171" value="" style="edgeStyle=orthogonalEdgeStyle;rounded=0;orthogonalLoop=1;jettySize=auto;html=1;" edge="1" parent="4vjb239dcJdlYheojxHy-88" source="4vjb239dcJdlYheojxHy-167" target="4vjb239dcJdlYheojxHy-170">
          <mxGeometry relative="1" as="geometry" />
        </mxCell>
        <mxCell id="4vjb239dcJdlYheojxHy-167" value="Tạo cổng mạng (port) cho instance" style="rounded=0;whiteSpace=wrap;html=1;" vertex="1" parent="4vjb239dcJdlYheojxHy-88">
          <mxGeometry x="80" y="902" width="120" height="60" as="geometry" />
        </mxCell>
        <mxCell id="4vjb239dcJdlYheojxHy-170" value="Gán địa chỉ IP (DHCP hoặc static)" style="whiteSpace=wrap;html=1;rounded=0;" vertex="1" parent="4vjb239dcJdlYheojxHy-88">
          <mxGeometry x="80" y="992" width="120" height="60" as="geometry" />
        </mxCell>
        <mxCell id="4vjb239dcJdlYheojxHy-190" value="" style="edgeStyle=orthogonalEdgeStyle;rounded=0;orthogonalLoop=1;jettySize=auto;html=1;" edge="1" parent="4vjb239dcJdlYheojxHy-88" source="4vjb239dcJdlYheojxHy-187" target="4vjb239dcJdlYheojxHy-189">
          <mxGeometry relative="1" as="geometry" />
        </mxCell>
        <mxCell id="4vjb239dcJdlYheojxHy-187" value="Cấu hình networking cho VM" style="whiteSpace=wrap;html=1;rounded=0;" vertex="1" parent="4vjb239dcJdlYheojxHy-88">
          <mxGeometry x="80" y="1322" width="120" height="60" as="geometry" />
        </mxCell>
        <mxCell id="4vjb239dcJdlYheojxHy-189" value="Cập nhật các rules (security group, routing...)" style="whiteSpace=wrap;html=1;rounded=0;" vertex="1" parent="4vjb239dcJdlYheojxHy-88">
          <mxGeometry x="80" y="1402" width="120" height="60" as="geometry" />
        </mxCell>
        <mxCell id="4vjb239dcJdlYheojxHy-94" value="Nova Compute" style="swimlane;whiteSpace=wrap" vertex="1" parent="1">
          <mxGeometry x="2124.5" y="128" width="280" height="1632" as="geometry" />
        </mxCell>
        <mxCell id="4vjb239dcJdlYheojxHy-96" value="" style="edgeStyle=elbowEdgeStyle;elbow=horizontal;verticalAlign=bottom;endArrow=open;endSize=8;strokeColor=#FF0000;endFill=1;rounded=0" edge="1" parent="4vjb239dcJdlYheojxHy-94" source="4vjb239dcJdlYheojxHy-95">
          <mxGeometry x="40" y="20" as="geometry">
            <mxPoint x="74.5" y="110" as="targetPoint" />
          </mxGeometry>
        </mxCell>
        <mxCell id="4vjb239dcJdlYheojxHy-99" value="" style="endArrow=open;strokeColor=#FF0000;endFill=1;rounded=0" edge="1" parent="4vjb239dcJdlYheojxHy-94" target="4vjb239dcJdlYheojxHy-98">
          <mxGeometry relative="1" as="geometry">
            <mxPoint x="75" y="160" as="sourcePoint" />
          </mxGeometry>
        </mxCell>
        <mxCell id="4vjb239dcJdlYheojxHy-101" value="" style="endArrow=open;strokeColor=#FF0000;endFill=1;rounded=0" edge="1" parent="4vjb239dcJdlYheojxHy-94" target="4vjb239dcJdlYheojxHy-100">
          <mxGeometry relative="1" as="geometry">
            <mxPoint x="75" y="270" as="sourcePoint" />
          </mxGeometry>
        </mxCell>
        <mxCell id="4vjb239dcJdlYheojxHy-103" value="yes" style="edgeStyle=elbowEdgeStyle;elbow=horizontal;align=left;verticalAlign=bottom;endArrow=open;endSize=8;strokeColor=#FF0000;exitX=0.5;exitY=0;endFill=1;rounded=0;entryX=0.75;entryY=0.5;entryPerimeter=0" edge="1" parent="4vjb239dcJdlYheojxHy-94" target="4vjb239dcJdlYheojxHy-106">
          <mxGeometry x="-1" relative="1" as="geometry">
            <mxPoint x="160" y="150" as="targetPoint" />
            <Array as="points">
              <mxPoint x="190" y="180" />
            </Array>
            <mxPoint x="190" y="225" as="sourcePoint" />
          </mxGeometry>
        </mxCell>
        <mxCell id="4vjb239dcJdlYheojxHy-104" value="no" style="edgeStyle=elbowEdgeStyle;elbow=horizontal;align=left;verticalAlign=top;endArrow=open;endSize=8;strokeColor=#FF0000;endFill=1;rounded=0" edge="1" parent="4vjb239dcJdlYheojxHy-94" target="4vjb239dcJdlYheojxHy-108">
          <mxGeometry x="-1" relative="1" as="geometry">
            <mxPoint x="190" y="305" as="targetPoint" />
            <mxPoint x="189.5" y="264.75" as="sourcePoint" />
          </mxGeometry>
        </mxCell>
        <mxCell id="4vjb239dcJdlYheojxHy-105" value="" style="endArrow=open;strokeColor=#FF0000;endFill=1;rounded=0" edge="1" parent="4vjb239dcJdlYheojxHy-94" target="4vjb239dcJdlYheojxHy-102">
          <mxGeometry relative="1" as="geometry">
            <mxPoint x="130" y="245" as="sourcePoint" />
          </mxGeometry>
        </mxCell>
        <mxCell id="4vjb239dcJdlYheojxHy-107" value="" style="edgeStyle=elbowEdgeStyle;elbow=horizontal;verticalAlign=bottom;endArrow=open;endSize=8;strokeColor=#FF0000;endFill=1;rounded=0" edge="1" parent="4vjb239dcJdlYheojxHy-94" source="4vjb239dcJdlYheojxHy-106">
          <mxGeometry x="130" y="90" as="geometry">
            <mxPoint x="130" y="135.25" as="targetPoint" />
          </mxGeometry>
        </mxCell>
        <mxCell id="4vjb239dcJdlYheojxHy-110" value="" style="endArrow=none;strokeColor=#FF0000;endFill=0;rounded=0;dashed=1" edge="1" parent="4vjb239dcJdlYheojxHy-94" target="4vjb239dcJdlYheojxHy-109">
          <mxGeometry relative="1" as="geometry">
            <mxPoint x="87.12121212121201" y="375" as="sourcePoint" />
          </mxGeometry>
        </mxCell>
        <mxCell id="4vjb239dcJdlYheojxHy-112" value="" style="edgeStyle=elbowEdgeStyle;elbow=horizontal;entryX=0;entryY=0.5;strokeColor=#FF0000;endArrow=open;endFill=1;rounded=0" edge="1" parent="4vjb239dcJdlYheojxHy-94" target="4vjb239dcJdlYheojxHy-111">
          <mxGeometry width="100" height="100" relative="1" as="geometry">
            <mxPoint x="195" y="375" as="sourcePoint" />
            <mxPoint x="160" y="380" as="targetPoint" />
            <Array as="points">
              <mxPoint x="195" y="400" />
            </Array>
          </mxGeometry>
        </mxCell>
        <mxCell id="4vjb239dcJdlYheojxHy-168" value="Yêu cầu tải image về local" style="rounded=0;whiteSpace=wrap;html=1;" vertex="1" parent="4vjb239dcJdlYheojxHy-94">
          <mxGeometry x="85.5" y="902" width="120" height="60" as="geometry" />
        </mxCell>
        <mxCell id="4vjb239dcJdlYheojxHy-182" value="" style="edgeStyle=orthogonalEdgeStyle;rounded=0;orthogonalLoop=1;jettySize=auto;html=1;" edge="1" parent="4vjb239dcJdlYheojxHy-94" source="4vjb239dcJdlYheojxHy-179" target="4vjb239dcJdlYheojxHy-181">
          <mxGeometry relative="1" as="geometry" />
        </mxCell>
        <mxCell id="4vjb239dcJdlYheojxHy-179" value="Triển khai máy ảo (sử dụng libvirt/QEMU)" style="rounded=0;whiteSpace=wrap;html=1;" vertex="1" parent="4vjb239dcJdlYheojxHy-94">
          <mxGeometry x="80" y="1081" width="120" height="60" as="geometry" />
        </mxCell>
        <mxCell id="4vjb239dcJdlYheojxHy-184" value="" style="edgeStyle=orthogonalEdgeStyle;rounded=0;orthogonalLoop=1;jettySize=auto;html=1;" edge="1" parent="4vjb239dcJdlYheojxHy-94" source="4vjb239dcJdlYheojxHy-181" target="4vjb239dcJdlYheojxHy-183">
          <mxGeometry relative="1" as="geometry" />
        </mxCell>
        <mxCell id="4vjb239dcJdlYheojxHy-181" value="Gắn đĩa boot từ image" style="whiteSpace=wrap;html=1;rounded=0;" vertex="1" parent="4vjb239dcJdlYheojxHy-94">
          <mxGeometry x="80" y="1162" width="120" height="60" as="geometry" />
        </mxCell>
        <mxCell id="4vjb239dcJdlYheojxHy-186" value="" style="edgeStyle=orthogonalEdgeStyle;rounded=0;orthogonalLoop=1;jettySize=auto;html=1;" edge="1" parent="4vjb239dcJdlYheojxHy-94" source="4vjb239dcJdlYheojxHy-183" target="4vjb239dcJdlYheojxHy-185">
          <mxGeometry relative="1" as="geometry" />
        </mxCell>
        <mxCell id="4vjb239dcJdlYheojxHy-183" value="Gắn cổng mạng" style="whiteSpace=wrap;html=1;rounded=0;" vertex="1" parent="4vjb239dcJdlYheojxHy-94">
          <mxGeometry x="80" y="1242" width="120" height="60" as="geometry" />
        </mxCell>
        <mxCell id="4vjb239dcJdlYheojxHy-185" value="Cài đặt metadata (hostname, keypair...)" style="whiteSpace=wrap;html=1;rounded=0;" vertex="1" parent="4vjb239dcJdlYheojxHy-94">
          <mxGeometry x="80" y="1322" width="120" height="60" as="geometry" />
        </mxCell>
        <mxCell id="4vjb239dcJdlYheojxHy-123" style="edgeStyle=orthogonalEdgeStyle;rounded=0;orthogonalLoop=1;jettySize=auto;html=1;entryX=0;entryY=0.5;entryDx=0;entryDy=0;" edge="1" parent="1" source="7" target="8">
          <mxGeometry relative="1" as="geometry" />
        </mxCell>
        <mxCell id="4vjb239dcJdlYheojxHy-129" value="" style="edgeStyle=orthogonalEdgeStyle;rounded=0;orthogonalLoop=1;jettySize=auto;html=1;" edge="1" parent="1" source="4vjb239dcJdlYheojxHy-119" target="4vjb239dcJdlYheojxHy-128">
          <mxGeometry relative="1" as="geometry" />
        </mxCell>
        <mxCell id="4vjb239dcJdlYheojxHy-134" value="" style="edgeStyle=orthogonalEdgeStyle;rounded=0;orthogonalLoop=1;jettySize=auto;html=1;" edge="1" parent="1" source="4vjb239dcJdlYheojxHy-128" target="4vjb239dcJdlYheojxHy-133">
          <mxGeometry relative="1" as="geometry">
            <Array as="points">
              <mxPoint x="310" y="430" />
            </Array>
          </mxGeometry>
        </mxCell>
        <mxCell id="4vjb239dcJdlYheojxHy-145" value="" style="edgeStyle=orthogonalEdgeStyle;rounded=0;orthogonalLoop=1;jettySize=auto;html=1;" edge="1" parent="1" source="4vjb239dcJdlYheojxHy-142" target="4vjb239dcJdlYheojxHy-144">
          <mxGeometry relative="1" as="geometry" />
        </mxCell>
        <mxCell id="4vjb239dcJdlYheojxHy-147" value="" style="edgeStyle=orthogonalEdgeStyle;rounded=0;orthogonalLoop=1;jettySize=auto;html=1;" edge="1" parent="1" target="4vjb239dcJdlYheojxHy-146">
          <mxGeometry relative="1" as="geometry">
            <mxPoint x="1199.5" y="503" as="sourcePoint" />
          </mxGeometry>
        </mxCell>
        <mxCell id="4vjb239dcJdlYheojxHy-169" style="edgeStyle=orthogonalEdgeStyle;rounded=0;orthogonalLoop=1;jettySize=auto;html=1;entryX=0.5;entryY=0;entryDx=0;entryDy=0;" edge="1" parent="1" source="4vjb239dcJdlYheojxHy-159" target="4vjb239dcJdlYheojxHy-168">
          <mxGeometry relative="1" as="geometry">
            <Array as="points">
              <mxPoint x="1430" y="970" />
              <mxPoint x="2270" y="970" />
            </Array>
          </mxGeometry>
        </mxCell>
        <mxCell id="4vjb239dcJdlYheojxHy-172" style="edgeStyle=orthogonalEdgeStyle;rounded=0;orthogonalLoop=1;jettySize=auto;html=1;entryX=0.5;entryY=0;entryDx=0;entryDy=0;" edge="1" parent="1" source="4vjb239dcJdlYheojxHy-168" target="4vjb239dcJdlYheojxHy-173">
          <mxGeometry relative="1" as="geometry">
            <mxPoint x="1700" y="1170" as="targetPoint" />
            <Array as="points">
              <mxPoint x="2270" y="1100" />
              <mxPoint x="1697" y="1100" />
            </Array>
          </mxGeometry>
        </mxCell>
        <mxCell id="4vjb239dcJdlYheojxHy-178" style="edgeStyle=orthogonalEdgeStyle;rounded=0;orthogonalLoop=1;jettySize=auto;html=1;entryX=0.24;entryY=0.387;entryDx=0;entryDy=0;entryPerimeter=0;" edge="1" parent="1" source="4vjb239dcJdlYheojxHy-170" target="4vjb239dcJdlYheojxHy-175">
          <mxGeometry relative="1" as="geometry">
            <Array as="points">
              <mxPoint x="1985" y="1190" />
              <mxPoint x="1719" y="1190" />
            </Array>
          </mxGeometry>
        </mxCell>
        <mxCell id="4vjb239dcJdlYheojxHy-180" style="edgeStyle=orthogonalEdgeStyle;rounded=0;orthogonalLoop=1;jettySize=auto;html=1;entryX=0;entryY=0.5;entryDx=0;entryDy=0;" edge="1" parent="1" source="4vjb239dcJdlYheojxHy-175" target="4vjb239dcJdlYheojxHy-179">
          <mxGeometry relative="1" as="geometry">
            <Array as="points">
              <mxPoint x="1710" y="1240" />
              <mxPoint x="2205" y="1240" />
            </Array>
          </mxGeometry>
        </mxCell>
        <mxCell id="4vjb239dcJdlYheojxHy-188" value="" style="edgeStyle=orthogonalEdgeStyle;rounded=0;orthogonalLoop=1;jettySize=auto;html=1;" edge="1" parent="1" source="4vjb239dcJdlYheojxHy-185" target="4vjb239dcJdlYheojxHy-187">
          <mxGeometry relative="1" as="geometry" />
        </mxCell>
        <mxCell id="4vjb239dcJdlYheojxHy-194" value="" style="edgeStyle=orthogonalEdgeStyle;rounded=0;orthogonalLoop=1;jettySize=auto;html=1;" edge="1" parent="1" source="4vjb239dcJdlYheojxHy-189" target="4vjb239dcJdlYheojxHy-193">
          <mxGeometry relative="1" as="geometry" />
        </mxCell>
        <mxCell id="4vjb239dcJdlYheojxHy-199" value="" style="edgeStyle=orthogonalEdgeStyle;rounded=0;orthogonalLoop=1;jettySize=auto;html=1;" edge="1" parent="1" source="4vjb239dcJdlYheojxHy-195" target="4vjb239dcJdlYheojxHy-198">
          <mxGeometry relative="1" as="geometry" />
        </mxCell>
        <mxCell id="4vjb239dcJdlYheojxHy-204" value="fork" style="text;whiteSpace=wrap;html=1;" vertex="1" parent="1">
          <mxGeometry x="2660" y="-240" width="50" height="40" as="geometry" />
        </mxCell>
        <mxCell id="4vjb239dcJdlYheojxHy-206" style="edgeStyle=orthogonalEdgeStyle;rounded=0;orthogonalLoop=1;jettySize=auto;html=1;entryX=0;entryY=0.5;entryDx=0;entryDy=0;" edge="1" parent="1" source="4vjb239dcJdlYheojxHy-144" target="4vjb239dcJdlYheojxHy-155">
          <mxGeometry relative="1" as="geometry" />
        </mxCell>
      </root>
    </mxGraphModel>
  </diagram>
</mxfile>
